<?xml version="1.0" encoding="UTF-8"?>
<svg id="Layer_1" data-name="Layer 1" xmlns="http://www.w3.org/2000/svg" viewBox="0 0 425.2 425.2">
  <defs>
    <style>
      .cls-1 {
        fill: #ed1c24;
      }

      .cls-2 {
        fill: #eb3627;
      }

      .cls-3 {
        fill: #c4161c;
      }
    </style>
  </defs>
  <g id="Group_2" data-name="Group 2">
    <g id="Group_1" data-name="Group 1">
      <path id="Path_1" data-name="Path 1" class="cls-1" d="M132.76,315.6h4.85v.78h-4.93v4.46h5.24v.86h-5.79v-11.27h5.79v.86h-5.16v4.3h0Z"/>
      <path id="Path_2" data-name="Path 2" class="cls-1" d="M147.31,311.61l-3.21,6.57h-.24l-3.21-6.57v10.01h-.63v-11.27h.78l3.21,6.57,3.13-6.57h.78v11.27h-.63v-10.01Z"/>
      <path id="Path_3" data-name="Path 3" class="cls-1" d="M150.44,321.62v-11.27h.63v11.27h-.63Z"/>
      <path id="Path_4" data-name="Path 4" class="cls-1" d="M160.14,321.62h-.86l-2.89-4.3h-2.27v4.3h-.63v-11.27h3.68c1.8,0,2.74,1.72,2.74,3.52s-.86,3.44-2.74,3.44l2.97,4.3ZM154.12,316.54h2.97c1.49,0,2.11-1.1,2.11-2.66,0-1.33-.63-2.66-2.03-2.66h-3.05v5.32Z"/>
      <path id="Path_5" data-name="Path 5" class="cls-1" d="M168.43,321.62l-.94-2.74h-5.01l-.94,2.74h-.7l3.76-11.27h.7l3.76,11.27h-.63ZM167.26,318.1l-2.27-6.88-2.27,6.88h4.54Z"/>
      <path id="Path_6" data-name="Path 6" class="cls-1" d="M171.8,311.14h-3.05v-.78h6.65v.78h-3.05v10.48h-.63v-10.48h.08Z"/>
      <path id="Path_7" data-name="Path 7" class="cls-1" d="M177.98,315.6h4.93v.78h-4.93v4.46h5.24v.86h-5.95v-11.27h5.79v.86h-5.16v4.3h.08Z"/>
      <path id="Path_8" data-name="Path 8" class="cls-1" d="M190.89,312.55c-.63-1.33-1.56-1.49-2.5-1.56-1.02,0-2.5.47-2.5,2.27,0,1.41,1.17,1.8,2.58,2.11,1.64.39,3.29.78,3.29,3.21,0,2.58-1.88,3.13-3.29,3.13-1.55.02-2.94-.96-3.44-2.43l.55-.39c.43,1.19,1.55,2,2.82,2.03,1.02,0,2.66-.39,2.66-2.35,0-1.72-1.41-2.03-2.74-2.43-1.56-.39-3.13-.86-3.13-2.89,0-2.35,1.8-3.13,3.21-3.13,1.17,0,2.27.23,3.05,1.96l-.55.47Z"/>
      <path id="Path_9" data-name="Path 9" class="cls-1" d="M204.19,321.62h-.86l-2.89-4.3h-2.27v4.3h-.63v-11.27h3.68c1.8,0,2.74,1.72,2.74,3.52s-.86,3.44-2.74,3.44l2.97,4.3ZM198.16,316.54h2.97c1.49,0,2.11-1.1,2.11-2.66,0-1.33-.63-2.66-2.03-2.66h-3.05v5.32Z"/>
      <path id="Path_10" data-name="Path 10" class="cls-1" d="M206.46,315.6h4.93v.78h-4.93v4.46h5.24v.86h-5.95v-11.27h5.79v.86h-5.09v4.3Z"/>
      <path id="Path_11" data-name="Path 11" class="cls-1" d="M220.77,315.91c.08,2.89-1.33,5.79-4.22,5.79h-2.82v-11.27h2.82c2.82-.08,4.22,2.66,4.22,5.48ZM214.36,311.22v9.62h2.19c2.5,0,3.6-2.5,3.6-4.93s-1.17-4.69-3.6-4.69h-2.19Z"/>
      <path id="Path_12" data-name="Path 12" class="cls-1" d="M233.6,320.06c-.86,1.1-1.96,1.72-3.05,1.72-2.82,0-4.3-2.66-4.3-5.71s1.41-5.87,4.3-5.87c1.1,0,2.19.55,3.05,1.72l-.47.55c-.59-.85-1.55-1.38-2.58-1.41-2.43,0-3.68,2.35-3.68,5.01s1.25,4.93,3.68,4.93c1.04-.03,2-.55,2.58-1.41l.47.47Z"/>
      <path id="Path_13" data-name="Path 13" class="cls-1" d="M242.37,321.62h-.86l-2.89-4.3h-2.27v4.3h-.63v-11.27h3.68c1.8,0,2.74,1.72,2.74,3.52s-.86,3.44-2.74,3.44l2.97,4.3ZM236.34,316.54h2.97c1.49,0,2.11-1.1,2.11-2.66,0-1.33-.63-2.66-2.03-2.66h-3.05v5.32Z"/>
      <path id="Path_14" data-name="Path 14" class="cls-1" d="M244.71,315.6h4.93v.78h-4.93v4.46h5.24v.86h-5.95v-11.27h5.79v.86h-5.16v4.3h.08Z"/>
      <path id="Path_15" data-name="Path 15" class="cls-1" d="M257.7,312.55c-.63-1.33-1.56-1.49-2.5-1.56-1.02,0-2.5.47-2.5,2.27,0,1.41,1.17,1.8,2.58,2.11,1.64.39,3.29.78,3.29,3.21,0,2.58-1.88,3.13-3.29,3.13-1.55.02-2.94-.96-3.44-2.42l.55-.39c.43,1.19,1.55,2,2.82,2.03,1.02,0,2.66-.39,2.66-2.35,0-1.72-1.41-2.03-2.74-2.43-1.56-.39-3.13-.86-3.13-2.89,0-2.35,1.8-3.13,3.21-3.13,1.17,0,2.27.23,3.05,1.96l-.55.47Z"/>
      <path id="Path_16" data-name="Path 16" class="cls-1" d="M267.32,320.06c-.86,1.1-1.96,1.72-3.05,1.72-2.82,0-4.3-2.66-4.3-5.71s1.41-5.87,4.3-5.87c1.1,0,2.19.55,3.05,1.72l-.47.55c-.59-.85-1.55-1.38-2.58-1.41-2.43,0-3.68,2.35-3.68,5.01s1.25,4.93,3.68,4.93c1.04-.03,2-.55,2.58-1.41l.47.47Z"/>
      <path id="Path_17" data-name="Path 17" class="cls-1" d="M270.06,315.6h4.93v.78h-4.93v4.46h5.24v.86h-5.95v-11.27h5.79v.86h-5.16v4.3h.08Z"/>
      <path id="Path_18" data-name="Path 18" class="cls-1" d="M277.89,310.36l5.63,9.31v-9.31h.63v11.27h-.23l-5.63-9.31v9.31h-.63v-11.27h.23Z"/>
      <path id="Path_19" data-name="Path 19" class="cls-1" d="M288.92,311.14h-3.05v-.78h6.65v.78h-3.05v10.48h-.63v-10.48h.08Z"/>
    </g>
  </g>
  <g id="Group_3" data-name="Group 3">
    <path id="Path_20" data-name="Path 20" class="cls-1" d="M270.3,200.59c-.09,0-.17-.02-.23-.08-.08-.08-.16-.16-.16-.55v-5.24c.05-1.98-.75-3.88-2.19-5.24-1.39-1.44-3.32-2.24-5.32-2.19-2-.03-3.92.76-5.32,2.19-1.43,1.37-2.22,3.27-2.19,5.24v.94c-.01.2.14.38.35.39.01,0,.03,0,.04,0h1.25c.2.01.38-.14.39-.35,0-.01,0-.03,0-.04v-.94c.04-2.99,2.48-5.4,5.48-5.4,1.46,0,2.86.56,3.91,1.56,1.06.99,1.65,2.38,1.64,3.83v5.24c-.02.21,0,.42.08.63h-44.2c.71-1.26,1.06-2.7,1.02-4.15.04-1.94-.63-3.83-1.88-5.32-.59-.68-1.31-1.24-2.11-1.64-1.64-.86-3.6-.86-5.24,0-.8.41-1.52.96-2.11,1.64-1.25,1.49-1.91,3.38-1.88,5.32,0,1.44.35,2.87,1.02,4.15h-6.65v-12.6c.01-.2-.14-.38-.35-.39-.01,0-.03,0-.04,0h-1.25c-.2-.01-.38.14-.39.35,0,.01,0,.03,0,.04v15.33c0,.7-.31,1.25-.94,1.8-.53.45-1.19.72-1.88.78-.19.02-.33.2-.31.39v1.25c.02.12.07.23.16.31.06.06.15.09.23.08h0c1.15-.08,2.24-.52,3.13-1.25,1-.79,1.58-2.01,1.56-3.29v-.7h8.37c.38.32.8.58,1.25.78,1.68.83,3.64.83,5.32,0,.44-.21.86-.48,1.25-.78h48.27c.2.01.38-.15.39-.35,0-.01,0-.03,0-.04v-1.25c-.08-.31-.23-.47-.47-.47ZM222.81,196.44c0,.75-.14,1.49-.39,2.19-.23.66-.57,1.27-1.02,1.8-.42.47-.93.87-1.49,1.17-.55.31-1.17.47-1.8.47-.81,0-1.6-.24-2.27-.7-.73-.53-1.32-1.23-1.72-2.03-.41-.88-.62-1.84-.63-2.82-.04-1.46.46-2.88,1.41-3.99.94-1.1,1.96-1.64,3.29-1.64,1.27,0,2.46.61,3.21,1.64.96,1.07,1.46,2.47,1.41,3.91Z"/>
    <path id="Path_21" data-name="Path 21" class="cls-1" d="M278.59,183.85h3.6c.2.01.38-.14.39-.35,0-.01,0-.03,0-.04v-1.1c.01-.2-.14-.38-.35-.39-.01,0-.03,0-.04,0h-1.56c-.12,0-.24-.06-.31-.16-.1-.11-.15-.25-.16-.39,0-.16.08-.23.16-.39.14-.19.42-.23.61-.09.03.03.06.06.09.09.13.13.29.24.47.31.09.08.22.08.31,0,.08,0,.16-.16.23-.23l.31-.94c.06-.13.03-.29-.08-.39-.87-.89-2.28-.9-3.17-.04-.01.01-.03.02-.04.04-.43.4-.66.98-.63,1.56-.02.19,0,.37.08.55-.16.08-.23.16-.23.31v1.1c-.08.39.08.55.31.55Z"/>
    <path id="Path_22" data-name="Path 22" class="cls-1" d="M279.84,185.26c-.2-.01-.38.14-.39.35,0,.01,0,.03,0,.04v14c-.01.2.14.38.35.39.01,0,.03,0,.04,0h1.25c.2.01.38-.14.39-.35,0-.01,0-.03,0-.04v-14c.01-.2-.14-.38-.35-.39-.01,0-.03,0-.04,0h-1.25Z"/>
    <path id="Path_23" data-name="Path 23" class="cls-1" d="M287.59,182.2h-1.33c-.2-.01-.38.14-.39.35,0,.01,0,.03,0,.04v17.92h-11.74c-.2-.01-.38.15-.39.35,0,.01,0,.03,0,.04v1.25c-.01.2.14.38.35.39.01,0,.03,0,.04,0h13.38c.2.01.38-.14.39-.35,0-.01,0-.03,0-.04v-19.64c-.01-.17-.15-.3-.31-.31Z"/>
    <path id="Path_24" data-name="Path 24" class="cls-1" d="M292.67,182.2h-1.25c-.2-.01-.38.14-.39.35,0,.01,0,.03,0,.04v19.64c-.01.2.14.38.35.39.01,0,.03,0,.04,0h1.25c.2.01.38-.14.39-.35,0-.01,0-.03,0-.04v-19.64c.01-.2-.14-.38-.35-.39-.01,0-.03,0-.04,0Z"/>
  </g>
  <g id="Group_4" data-name="Group 4">
    <path id="Path_25" data-name="Path 25" class="cls-3" d="M215.53,238.69h-1.41c-.2-.01-.38.14-.39.35,0,.01,0,.03,0,.04v1.72c-.01.2.15.38.35.39.01,0,.03,0,.04,0h1.41c.2.01.38-.14.39-.35,0-.01,0-.03,0-.04v-1.72c-.01-.21-.18-.38-.39-.39Z"/>
    <path id="Path_26" data-name="Path 26" class="cls-3" d="M211.38,238.69h-1.41c-.2-.01-.38.14-.39.35,0,.01,0,.03,0,.04v1.72c-.01.2.15.38.35.39.01,0,.03,0,.04,0h1.41c.2.01.38-.14.39-.35,0-.01,0-.03,0-.04v-1.72c-.01-.21-.18-.38-.39-.39Z"/>
    <path id="Path_27" data-name="Path 27" class="cls-3" d="M233.68,217.96h-1.49c-.2-.01-.38.14-.39.35,0,.01,0,.03,0,.04v1.72c-.01.2.14.38.35.39.01,0,.03,0,.04,0h1.49c.2.01.38-.14.39-.35,0-.01,0-.03,0-.04v-1.72c-.01-.21-.18-.38-.39-.39Z"/>
    <path id="Path_28" data-name="Path 28" class="cls-3" d="M229.54,220.46c.2.01.38-.14.39-.35,0-.01,0-.03,0-.04v-1.72c.01-.2-.14-.38-.35-.39-.01,0-.03,0-.04,0h-1.49c-.2-.01-.38.14-.39.35,0,.01,0,.03,0,.04v1.72c-.01.2.14.38.35.39.01,0,.03,0,.04,0h1.49Z"/>
    <path id="Path_29" data-name="Path 29" class="cls-3" d="M231.49,222.03h-1.25c-.2-.01-.38.14-.39.35,0,.01,0,.03,0,.04v12.6h-5.87v-7.04c.03-1.55-.56-3.04-1.64-4.15-.99-1.12-2.42-1.75-3.91-1.72h-2.42c-.2-.01-.38.14-.39.35,0,.01,0,.03,0,.04v12.6h-4.23c-2.11.05-4.18-.61-5.87-1.88-1.56-1.25-2.35-2.66-2.35-4.3v-4.15c.01-.2-.14-.38-.35-.39-.01,0-.03,0-.04,0h-1.25c-.2-.01-.38.14-.39.35,0,.01,0,.03,0,.04v4.15c0,1.15.3,2.28.86,3.29.58,1.02,1.35,1.93,2.27,2.66.97.74,2.05,1.32,3.21,1.72,1.18.4,2.43.62,3.68.63h6.02c.2.01.38-.14.39-.35,0-.01,0-.03,0-.04v-12.6h.78c.62-.01,1.22.18,1.72.55.56.35,1.01.83,1.33,1.41.31.6.47,1.28.47,1.96v8.68c-.01.2.14.38.35.39.01,0,.03,0,.04,0h9c.2.01.38-.14.39-.35,0-.01,0-.03,0-.04v-14.24c.23-.39,0-.55-.16-.55Z"/>
    <path id="Path_30" data-name="Path 30" class="cls-3" d="M238.85,216.71h-1.25c-.2-.01-.38.14-.39.35,0,.01,0,.03,0,.04v19.64c-.01.2.14.38.35.39.01,0,.03,0,.04,0h1.25c.2.01.38-.14.39-.35,0-.01,0-.03,0-.04v-19.64c-.08-.23-.23-.39-.39-.39Z"/>
    <path id="Path_31" data-name="Path 31" class="cls-3" d="M247.14,222.03h-1.25c-.2-.01-.38.14-.39.35,0,.01,0,.03,0,.04v15.33c0,.72-.35,1.39-.94,1.8-.53.45-1.19.72-1.88.78-.19.02-.33.2-.31.39v1.25c.02.12.07.23.16.31.06.06.15.09.23.08h0c1.15-.08,2.24-.52,3.13-1.25,1-.79,1.58-2.01,1.56-3.29v-15.33c.07-.18-.03-.38-.21-.45-.03-.01-.07-.02-.1-.02Z"/>
    <path id="Path_32" data-name="Path 32" class="cls-3" d="M267.79,223.9c-1.64-.86-3.6-.86-5.24,0-.8.41-1.52.96-2.11,1.64-1.25,1.49-1.91,3.38-1.88,5.32,0,1.44.35,2.87,1.02,4.15h-6.96v-17.92c.01-.2-.14-.38-.35-.39-.01,0-.03,0-.04,0h-1.17c-.2-.01-.38.14-.39.35,0,.01,0,.03,0,.04v19.64c-.01.2.14.38.35.39.01,0,.03,0,.04,0h10.25c.38.32.8.58,1.25.78.83.4,1.74.61,2.66.63.92-.02,1.83-.23,2.66-.63.8-.41,1.52-.96,2.11-1.64,2.5-3.1,2.5-7.54,0-10.64-.61-.71-1.36-1.29-2.19-1.72ZM269.75,230.87c0,.75-.14,1.49-.39,2.19-.23.66-.57,1.27-1.02,1.8-.42.47-.93.87-1.49,1.17-1.16.6-2.55.57-3.68-.08l-.39-.23c-.73-.51-1.3-1.22-1.64-2.03-.41-.88-.62-1.84-.63-2.82-.04-1.46.46-2.88,1.41-3.99.94-1.1,1.96-1.64,3.29-1.64,1.27,0,2.46.61,3.21,1.64.89,1.14,1.36,2.55,1.33,3.99h0Z"/>
    <path id="Path_33" data-name="Path 33" class="cls-3" d="M281.01,234.47c.2.01.38-.14.39-.35,0-.01,0-.03,0-.04v-14c.01-.2-.14-.38-.35-.39-.01,0-.03,0-.04,0h-1.25c-.2-.01-.38.14-.39.35,0,.01,0,.03,0,.04v14c-.01.2.14.38.35.39.01,0,.03,0,.04,0h1.25Z"/>
    <path id="Path_34" data-name="Path 34" class="cls-3" d="M287.51,216.71h-1.25c-.2-.01-.38.14-.39.35,0,.01,0,.03,0,.04v17.92h-11.74c-.2-.01-.38.15-.39.35,0,.01,0,.03,0,.04v1.25c-.01.2.14.38.35.39.01,0,.03,0,.04,0h13.38c.2.01.38-.14.39-.35,0-.01,0-.03,0-.04v-19.64c-.02-.19-.2-.33-.39-.31Z"/>
    <path id="Path_35" data-name="Path 35" class="cls-3" d="M281.8,241.74h-1.56c-.27-.04-.47-.27-.47-.55,0-.16.08-.23.16-.39.14-.19.42-.23.61-.09.03.03.06.06.09.09l.08.08c.08,0,.16.08.39.23.09.06.2.09.31.08.11-.03.2-.12.23-.23l.31-.94c.06-.13.03-.29-.08-.39-1.1-.94-2.35-.86-3.21,0-.43.4-.66.98-.63,1.56-.02.19,0,.37.08.55-.16.06-.26.22-.23.39v1.1c-.01.2.14.38.35.39.01,0,.03,0,.04,0h3.6c.2.01.38-.14.39-.35,0-.01,0-.03,0-.04v-1.1c-.05-.22-.24-.38-.47-.39Z"/>
    <path id="Path_36" data-name="Path 36" class="cls-3" d="M292.67,216.71h-1.25c-.2-.01-.38.14-.39.35,0,.01,0,.03,0,.04v19.64c-.01.2.14.38.35.39.01,0,.03,0,.04,0h1.25c.2.01.38-.14.39-.35,0-.01,0-.03,0-.04v-19.64c-.01-.21-.18-.38-.39-.39Z"/>
    <path id="Path_37" data-name="Path 37" class="cls-3" d="M204.11,171.64c.97.74,2.05,1.32,3.21,1.72,1.18.4,2.43.62,3.68.63h3.36c.2.01.38-.14.39-.35,0-.01,0-.03,0-.04v-23.94c.01-.2-.14-.38-.35-.39-.01,0-.03,0-.04,0h-1.25c-.2-.01-.38.14-.39.35,0,.01,0,.03,0,.04v22.22h-1.56c-2.11.05-4.18-.61-5.87-1.88-1.56-1.25-2.35-2.66-2.35-4.3v-4.15c.01-.2-.14-.38-.35-.39-.01,0-.03,0-.04,0h-1.25c-.2-.01-.38.14-.39.35,0,.01,0,.03,0,.04v4.15c0,1.15.3,2.28.86,3.29.63,1.01,1.42,1.91,2.35,2.66Z"/>
    <path id="Path_38" data-name="Path 38" class="cls-3" d="M223.9,167.11h1.25c.2.01.38-.14.39-.35,0-.01,0-.03,0-.04v-13.93c.01-.2-.14-.38-.35-.39-.01,0-.03,0-.04,0h-1.25c-.2-.01-.38.14-.39.35,0,.01,0,.03,0,.04v14c.02.19.2.33.39.31Z"/>
    <path id="Path_39" data-name="Path 39" class="cls-3" d="M287.59,149.27h-1.33c-.2-.01-.38.14-.39.35,0,.01,0,.03,0,.04v17.92h-5.79v-5.94c.05-1.98-.75-3.88-2.19-5.24-1.39-1.44-3.32-2.24-5.32-2.19-2-.03-3.92.76-5.32,2.19-.15.14-.16.38-.01.53,0,0,0,0,.01.01l.86.86c.14.15.38.16.53.01,0,0,0,0,.01-.01,1.02-1.05,2.45-1.62,3.91-1.56,1.44-.02,2.82.55,3.83,1.56,1.06.99,1.65,2.38,1.64,3.83v5.95h-2.58c.8-.99,1.22-2.24,1.17-3.52,0-1.64-.55-2.97-1.72-3.99-2.19-2.03-4.77-2.03-6.96,0-1.17,1.02-1.72,2.35-1.72,3.99-.04,1.28.37,2.53,1.17,3.52h-35.36v-17.92c.01-.2-.14-.38-.35-.39-.01,0-.03,0-.04,0h-1.25c-.2-.01-.38.14-.39.35,0,.01,0,.03,0,.04v17.92h-11.74c-.2-.01-.38.15-.39.35,0,.01,0,.03,0,.04v1.25c-.01.2.14.38.35.39.01,0,.03,0,.04,0h69.32c.2.01.38-.14.39-.35,0-.01,0-.03,0-.04v-19.56c-.08-.16-.23-.39-.39-.39ZM274.6,164.13c.05.97-.32,1.91-1.02,2.58-.59.53-1.33.86-2.11.94-1.83-.15-3.23-1.69-3.21-3.52-.06-.98.35-1.94,1.1-2.58,1.05-1.17,2.85-1.26,4.02-.21.07.06.14.13.21.21.69.67,1.07,1.61,1.02,2.58Z"/>
    <path id="Path_40" data-name="Path 40" class="cls-3" d="M292.67,149.27h-1.25c-.2-.01-.38.14-.39.35,0,.01,0,.03,0,.04v19.64c-.01.2.14.38.35.39.01,0,.03,0,.04,0h1.25c.2.01.38-.14.39-.35,0-.01,0-.03,0-.04v-19.64c-.01-.21-.18-.38-.39-.39Z"/>
  </g>
  <rect id="Rectangle_1" data-name="Rectangle 1" class="cls-2" x="132.29" y="298.15" width="160.54" height=".55"/>
  <path id="Path_41" data-name="Path 41" class="cls-1" d="M272.57,265.84c-6.76,2.01-13.76,3.04-20.81,3.05-34.89,0-64.15-24.25-71.82-56.72v-.16c-.54-2.24-.96-4.52-1.25-6.81-.41-3.22-.61-6.46-.63-9.7.02-3.06.2-6.11.55-9.15.31-2.35.7-4.62,1.17-6.88.47-2.19,1.1-4.3,1.72-6.42.63-1.88,1.33-3.76,2.03-5.63,3.05-7.38,7.3-14.2,12.6-20.19,1.72-1.97,3.55-3.85,5.48-5.63,3.21-2.97,9.62-7.67,9.31-7.51.39-.23.7-.47,1.1-.7,1.41-.94,2.89-1.8,4.3-2.58-8.74,2.12-17.03,5.78-24.49,10.8-2.56,1.7-4.99,3.58-7.28,5.63h0c-.31.31-.63.55-.94.86.31-.23.7-.39,1.02-.63-6.48,5.69-11.96,12.44-16.2,19.95-1.02,1.8-1.96,3.68-2.82,5.63-.94,2.11-1.8,4.22-2.58,6.42-.8,2.26-1.48,4.56-2.03,6.88-1.51,6.19-2.19,12.56-2.03,18.93.08,2.27.23,4.62.47,6.88.08.94.23,1.88.39,2.82.84,5.6,2.31,11.08,4.38,16.35,12.6,31.69,45.77,51.72,80.98,46.4,12.27-1.85,23.91-6.69,33.87-14.08-2.11.78-4.3,1.56-6.49,2.19Z"/>
  <path id="Path_42" data-name="Path 42" class="cls-3" d="M278.98,263.65c-4.15,3.08-8.61,5.73-13.3,7.9-6.52,3.05-13.45,5.13-20.58,6.18-35.21,5.32-68.38-14.71-80.97-46.39-2.07-5.27-3.54-10.75-4.38-16.35-.16-.94-.23-1.88-.39-2.82-.23-2.35-.39-4.62-.47-6.88-.12-6.37.56-12.73,2.03-18.93.56-2.33,1.24-4.63,2.03-6.88.78-2.19,1.64-4.3,2.58-6.42.86-1.88,1.8-3.76,2.82-5.63,4.22-7.53,9.69-14.28,16.2-19.95-.31.23-.7.39-1.02.63.31-.31.63-.55.94-.86h0c2.3-2.03,4.73-3.91,7.28-5.63,7.43-5.07,15.73-8.73,24.49-10.8,8.6-4.74,18.08-7.67,27.85-8.61,2.5-.23,4.93-.39,7.51-.39,14.79-.02,29.24,4.42,41.46,12.75-31.9-36.09-86.2-41.54-124.63-12.52-7.31,5.52-13.75,12.11-19.09,19.56-1.33,1.8-2.58,3.68-3.76,5.63-3.87,6.35-6.99,13.12-9.31,20.19-.63,1.88-1.1,3.76-1.56,5.63-.55,2.11-.94,4.22-1.33,6.42-.39,2.27-.7,4.62-.94,6.88-.31,2.82-.39,5.71-.47,8.61.01,3.45.22,6.9.63,10.33.23,2.35.63,4.62,1.02,6.88.16,1.02.39,2.03.63,3.05,1.46,6.47,3.61,12.76,6.41,18.78,2.94,6.29,6.59,12.22,10.87,17.68.7,1.33,5.32,6.18,5.48,6.34,3.08,3.22,6.37,6.23,9.86,9,1.64,1.25,3.52,2.82,5.4,3.99h.08l.08.08h0c5.66,3.82,11.72,7.02,18.07,9.54,7.23,2.85,14.81,4.74,22.53,5.63,8.16,1,16.42.95,24.57-.16,5.86-.8,11.63-2.19,17.21-4.15,3.15-1.08,6.24-2.36,9.23-3.83.55-.23,1.1-.55,1.64-.78.78-.39,1.49-.78,2.19-1.17,1.1-.63,2.19-1.17,3.29-1.8.06,0,.11-.04.16-.08.86-.55,1.8-1.1,2.66-1.64,7.16-4.57,13.64-10.13,19.25-16.51-3.31,2.27-6.82,4.24-10.48,5.87-1.25.63-2.5,1.1-3.76,1.64Z"/>
</svg>