<?xml version="1.0" encoding="UTF-8"?>
<svg id="Layer_1" data-name="Layer 1" xmlns="http://www.w3.org/2000/svg" viewBox="0 0 425.2 425.2">
  <defs>
    <style>
      .cls-1 {
        fill: #ec1e2c;
      }
    </style>
  </defs>
  <path class="cls-1" d="M415.21,176.85v72.08c-1.75,3.33-3.23,4.91-6.83,6.27h-67.77c-3.38-2.04-5.69-3.6-6.09-7.87-.07-.77.32-.96.32-1.01l.51-.26-.51-.26c-.62-22.68.46-45.47,0-68.16.49-4.43,4.45-6.7,8.64-7.07,20.02-1.8,42.75,1.4,63.06.02,4.39.47,6.64,2.59,8.66,6.27ZM404.18,181.03c-1.52-.12-2.66,2.59-4.58,3.02-3.91.87-15.3-1.15-17.73,1.17-3.4,3.25.74,17.29-2.61,20.91-1.24,1.35-5.64,1.37-7.28.9-5.14-1.48-.41-18.13-3.5-21.6-.3-.34-2.1-1.28-2.39-1.28h-19.7v18.54c0,.22,1.4,2.62,1.92,2.79,3.43,1.13,10.96-2.19,12.15,3.07.46,2.05.62,9.87-1.46,10.86-2.64,1.25-12.61-1.76-12.61,3.66v18.02h21.28c3.52,0,.3-18.77,3.11-21.98,1.17-1.34,5.7-1.35,7.29-.89,5.28,1.52.09,20.67,4.04,22.62,3,1.48,16.59-.59,20.76.26,1.54-.11,1.1-1.15,1.31-2.09.03-.12.37-.24,0-.52-.53-4.57,1.13-12.96-1.11-16.92-1.9-3.36-11.28.88-13.2-3.59-.62-1.44-.63-7.27-.37-8.98.93-5.91,9.3-2.14,12.58-3.69,1.47-.69,1.53-3.49,2.1-4.96.06-.14.54-.21,0-.52v-18.28l.52-.26c-.1-.29-.28-.25-.52-.27Z"/>
  <g>
    <path d="M9.98,194.91c.95-.91,1.41-.9,2.63-.52v8.1c0,.26.79,1.78,1.07,2.07,2.17,2.2,14.69,2.2,14.69-1.55v-8.62c4.81-1.37,1.39,7.04,3.11,9.7,1.85,2.84,16.32,2.79,16.32-1.08v-8.62h2.63v8.62c0,3.93,14.4,3.61,16.15,1.7.15-.16,1.18-2.59,1.18-2.74v-7.57h2.1c-.27,2.51-.32,11.49,3.42,11.49h21.8c2.01-7.66-3.91-11.4-11.03-9.4l.31-1.61c8.21-2.74,14.83,2.19,13.35,11.02h17.6c.19,0,1.9-1.22,2.14-1.53,1.88-2.35.07-12.42.82-15.9l2.55-.86v15.93c0,.13-1.14,2.1-1.34,2.32-1.39,1.5-5.27,1.99-7.3,2.14-9.63.72-24.47.59-34.18,0-2.26-.14-8.87-2.04-9.35-2-.75.07-1.62.98-2.45,1.19-4.32,1.09-10.42,1.21-14.72.02-.81-.22-1.47-1.33-2.34-1.33s-1.53,1.11-2.34,1.33c-4.04,1.11-10.72,1.15-14.74-.01-.83-.24-1.51-1.31-2.35-1.31-.74,0-1.59.99-2.46,1.21-5.44,1.36-14.48,2.22-17.24-3.83v-8.36Z"/>
    <path d="M9.98,237.22v-16.71c2.6-1.96,9.68-.99,12.45.42,4.37,2.22,5.11,8.4,2.7,12.29-3.1,4.98-10.14,3.95-15.14,4.01ZM12.61,221.55v13.32c0,1.63,8.6.62,10.43-2.68,4.11-7.4-3.39-12.3-10.43-10.64Z"/>
    <path d="M167.02,187.6v14.89c0,1.18,2.45,3.4,3.41,3.4h17.07c-.46-7.33-.09-12.26,8.69-11.52,6.7.57,5.96,6.33,6.01,11.52h13.92c.77,0,3.04-1.55,3.3-2.46.81-2.75-1.69-10.46,2.74-9.03v8.62c0,3.88,14.37,3.45,16.76,2.05.34-.2,1.62-1.4,1.62-1.52v-15.15c0-.98,2.63-.98,2.63,0v14.62c0,.81,2.82,2.87,3.41,2.87h13.39v-11.49h2.63v8.62c0,3.68,9.45,3.93,9.45-1.04v-7.57h2.1v7.57c0,2.64,2.99,4.11,5.45,3.89,5.97-.54,3.49-6.52,4.08-10.61l2.55-.86v8.62c0,4.23-6.85,5.09-10.11,4.3-1.1-.27-2.24-1.4-3.2-1.32-1.18.11-3.11,1.72-5.42,1.78-1.47.03-3.08-.67-4.56-.65-6.27.11-12.48,1.5-18.64-.03-.87-.22-1.73-1.2-2.46-1.21-.84,0-1.52,1.07-2.35,1.31-4.5,1.31-11.2.97-15.8.03-1-.2-2.02-1.29-2.76-1.25s-1.63,1.03-2.44,1.22c-4.99,1.19-10.94,1.01-15.98.34-2.49,4.57-8.94,6.26-13.11,2.98-1.12-.88-1.29-2.67-2.25-2.98-1.53-.5-8.23-.12-10.44-.1-3.08.02-4.56,1-8.11-.24-5.54-1.93-4.6-11.67-4.23-16.73.16-2.17.15-3.3,2.65-2.85ZM198.39,197.15c-1.87-1.86-6.73-1.42-7.87,1.02-.61,1.3-.6,6.91-.36,8.46.69,4.36,7.56,4.63,9.03,1.2.83-1.94.75-9.15-.8-10.69Z"/>
    <path d="M134.86,220.11l5.38,13.46,5.73-13.22,1.43-.72,1.64.5,2.23,17.11h-2.63s-1.05-13.58-1.05-13.58c-1.5-.28-.85.4-1.19,1.14-1.83,3.96-3.2,8.26-4.65,12.37-1.17.12-2.05.53-2.73-.58-.91-1.5-4.65-12.97-5.35-12.94l-1.82,13.25-2.12.34c.94-4.92.55-11.57,1.8-16.24.42-1.57,2.14-1.7,3.32-.87Z"/>
    <path d="M310.67,219.46c4.58.67,7.12,6.09,2.37,8.62,5.3,2.1,3.06,9.14-1.85,9.14h-8.14v-17.76c2.38.24,5.32-.34,7.62,0ZM305.68,227.3c9.72,1.45,10.04-7.35,0-5.75v5.75ZM305.75,235.06c10.23,1.89,10.85-7.26-.07-5.68l.07,5.68Z"/>
    <path d="M278.37,220.25c.39-1.26,6.18-.85,7.48-.65,4.98.77,7.13,5.58,2.51,8.48,5.33,1.68,2.63,9.14-1.32,9.14h-8.67v-16.98ZM281,227.3c2.87-.05,6.7.83,7.32-2.88-.66-3.98-4.25-2.74-7.32-2.87v5.75ZM281.01,235.12c3.45.54,8.65.72,7.61-4.15-1.68-2.61-4.99-1.31-7.62-1.59v5.74Z"/>
    <path d="M30.47,220.77c.69-2.44,11.59-1.84,12.52,2.73.86,4.21-3.57,5.18-3.58,5.62,2.4,2.01,3.47,5.05,4.72,7.83-3.77,1.86-3.96-4.58-5.91-6.39-.54-.5-4.06-1.37-4.63-.95l-.5,7.62h-2.63v-16.46ZM39.78,226.64c3.35-3.7-3.53-6.26-6.69-5.09v6.27c1.76.05,5.44.2,6.69-1.18Z"/>
    <path d="M186.46,233.04v-12.8l1.31-.78.8.78v16.98c-1.07.03-1.96.24-2.89-.53-1.74-1.43-5.72-9.16-7.71-11.66-.41-.51-.79-1.26-1.48-1.4v13.58h-2.1v-17.24c.61.06,1.16-.52,1.76-.41,1.86.33,7.88,12.04,10.32,13.47Z"/>
    <path d="M252.64,227.3l.09-6.97.71-.86c.52-.27,1.83.35,1.83.77v16.98h-2.63v-8.36h-8.67l-.79.78v7.57h-2.63v-16.45c0-.22,1.58-2.05,2.38-.8,1.04,1.62-.8,5.81,1.03,7.33h8.67Z"/>
    <path d="M73.01,232.78c.68,3.18,6.18,3.74,8.26,1.68.13-.13,1.19-2.08,1.19-2.21v-12.01c1.82-2.12,2.46,1.07,2.62,2.61.74,6.83.57,15.66-8.51,14.77-1.94-.19-6.2-2.16-6.2-4.33v-13.06c0-.98,2.63-.98,2.63,0,0,3.18-.57,9.9,0,12.54Z"/>
    <path d="M146.02,194.39v13.32c0,.29,2.03,1.94,2.6,2.12,2.1.66,6.86-.11,6.86-2.64v-12.8l2.13.23c1.13.77.47,11.94-.29,13.88-1.69,4.35-9.23,4.62-12.33,1.79-.31-.28-1.6-2.43-1.6-2.59v-13.32h2.63Z"/>
    <path d="M268.26,220.13l6.96,17.09-2.54-.09-1.6-4.3-8.12-.22c-1.83.62-1.01,5.63-4.55,4.61l6.37-16.37,1.35-1.31,2.12.59ZM269.97,230.95c-.17-.92-2.86-8.95-3.67-8.35-.18,1.39-3.33,7.65-2.63,8.35h6.3Z"/>
    <path d="M112.27,220.13l6.96,17.09-2.54-.09-1.6-4.3-8.12-.22-1.97,4.56-2.57.05,6.37-16.38,1.35-1.31,2.12.59ZM113.97,230.95c.37-.34-2.94-8.9-3.67-8.35-.18,1.39-3.33,7.65-2.63,8.35h6.3Z"/>
    <path d="M216.4,237.22l-3.09-.06-1.97-4.57-8.13.25-1.59,4.31-2.55.07,7.19-17.27c1.23-.71,2.47-.25,3.25.89,2.65,3.86,3.99,12.17,6.89,16.38ZM207.99,222.6c-1.36-.24-.81.19-1.09.74-.43.83-2.87,7.34-2.58,7.61h6.3s-2.63-8.35-2.63-8.35Z"/>
    <path d="M171.23,237.22c-4.06.9-2.76-2.85-5.07-4.61l-8-.02c-.74,2.57-.83,5.39-4.26,4.63l7.87-17.52h1.58c2.08,1.11,6.21,14.74,7.87,17.52ZM165.97,230.95l-3.41-8.35-3.41,8.35h6.82Z"/>
    <path d="M65.12,220v1.55c-2.22-.39-8.58-1.15-8.16,2.36.41,3.44,9.41,2.97,9.26,8.88-.15,5.91-8.16,5.55-12.12,3.37l.52-2.06c2.03,1.64,8.44,2.73,8.94-.81.69-4.86-8.99-3.43-8.99-9.37,0-5.42,6.73-4.81,10.55-3.9Z"/>
    <path d="M297.81,207.45v-1.57h11.82c2.31,0,3.86-2.22,3.97-4.42.41-7.9-8.71-4.18-9.49-4.98v-1.55c6.09-1.61,13.21-.39,11.96,7.43-.3,1.88-2.26,5.09-4.34,5.09h-13.92Z"/>
    <path d="M221.65,235.13h8.4v2.09h-11.03v-16.98c0-.98,2.63-.98,2.63,0v14.89Z"/>
    <polygon points="91.92 235.13 100.32 235.13 100.32 237.22 89.82 237.22 89.82 220.25 90.61 219.47 91.92 220.25 91.92 235.13"/>
    <path d="M130.26,207.45h-2.63v-19.06c0-.98,2.63-.98,2.63,0v19.06Z"/>
    <path d="M298.33,237.22h-2.63v-16.98c0-.98,2.63-.98,2.63,0v16.98Z"/>
    <polygon points="125.01 219.99 125.01 237.22 122.38 237.22 122.38 220.25 123.22 219.5 125.01 219.99"/>
    <circle cx="19.71" cy="210.94" r="1.62"/>
    <circle cx="45.75" cy="210.94" r="1.62"/>
    <circle cx="52.49" cy="210.94" r="1.62"/>
    <circle cx="69.38" cy="210.94" r="1.62"/>
    <circle cx="151.27" cy="191.31" r="1.62"/>
    <circle cx="219.02" cy="210.94" r="1.62"/>
    <circle cx="223.92" cy="210.94" r="1.62"/>
    <circle cx="294.09" cy="205.83" r="1.62"/>
  </g>
</svg>