<?xml version="1.0" encoding="UTF-8"?>
<svg id="Layer_1" data-name="Layer 1" xmlns="http://www.w3.org/2000/svg" viewBox="0 0 708.66 425.2">
  <defs>
    <style>
      .cls-1 {
        fill: #e31936;
      }

      .cls-2 {
        fill: #055dab;
      }
    </style>
  </defs>
  <path class="cls-1" d="M244.3,144.9l-.73,10.27c0,.32.36.34.37.37.08.43-.06,1,0,1.47-.4.97-.24,1.02-.37,1.83-.4,2.5-.36,4.45-.37,6.97,0,.13,0,.23,0,.37,0,.49,0,.98,0,1.47-.16-.02-.32,0-.36.18-.08,1.9-.24,3.79-.37,5.68-.08,1.21.08,2.46,0,3.67-.17,2.44-.56,5.13-.73,7.7-.06.85.06,1.72,0,2.57-.17,2.52-.55,5.39-.73,8.07-.07,1.09.07,2.21,0,3.3-.06.95-.73,3.33-.73,4.22v5.87c0,.44-.31,1.89-.37,2.75-.08,1.33.08,2.7,0,4.04-.26,4.38-.86,9.07-1.1,13.57,0,.12,0,.24,0,.37-.01.24.01.49,0,.73s.01.49,0,.73c-.32,6.12-.9,12.2-.73,18.34.02.73-.02,1.47,0,2.2h.55c.35-.1.73-1.76.92-2.2,1.52-3.49,2.95-7.61,3.31-11.37.68-.22,1.58-4.19,1.84-5.14.49-1.79.69-4,1.1-5.5.09-.33.58-.91.73-1.47.37-1.35.75-2.68,1.1-4.04.51-1.95.98-3.92,1.47-5.87.43-1.73.71-3.42,1.1-5.14.42-1.84,1.27-3.23,1.47-5.5.01-.12,0-.25,0-.37,1.19-1.28,1.07-3.55,1.47-5.14.51-2.02,1.59-4.06,1.47-6.24.15.02.29-.05.36-.19.49-1.49.71-3.08,1.11-4.58.34-1.28.94-2.2,1.1-3.67.43-.13.85-1.08,1.29-.37.28.45.81,3.29.91,4.04.21,1.57.24,3.8.37,5.5.18,2.37.13,5.04.73,7.34-.04.92-.28,4.96.56,5.13.98.21,2.02-2.52,2.02-3.3,2.36-2.69,2.51-4.64,5.14-.73.12,1.16.5,1.68.73,2.57,2.05,7.78,3.28,3.36,5.88-1.1.48-.33,3.65-2.7,3.67-2.93,2.09-.22,4.21.14,5.88,1.47.45.36,2.23,2.4,2.57,2.93.2.31.94,1.58.73,1.83-.9-.95-2.02-1.05-2.94-1.47-.09-.04-.31-.58-.87-.76-2.36-.78-3.29-.39-5,1.13-1.79,1.58-1.81,2.74-2.94,4.4-.72,1.05-1.49,2.33-2.2,3.3-.4.55-1.25,1.42-1.84,1.83-.71-.14-1.12.19-2.04-.35-1.13-.67-1.28-2.26-2.37-2.95-.22-.75-.48-1.18-.73-1.83-1.52-3.88-1.91-3.17-3.67,0-.21.38-.23.84-.37,1.1-.83,1.54-1.66,3.3-2.57,4.77-.15.24-.33.71-.37.73-.07.04-.23-.02-.37,0-.16.03-.64.04-.73,0-.03-.01-.36-.34-.37-.37-.06-.18.04-.51,0-.73-.32-1.62-.59-3.85-.73-5.5-.05-.57.18-3.68-.19-3.67-1.18.02-1.73,2.82-2.02,3.67-.61,1.8-.95,3.69-1.47,5.5s-.97,3.67-1.47,5.5c-1,3.67-2,7.32-2.94,11.01-.4,1.59-.72,3.19-1.1,4.77-.51,2.08-1.46,4.08-1.84,6.24-.17.95-.3,1.56-.37,2.57-1.59,2.55-1.77,6.03-2.57,8.8-.49,1.71-1.3,3.69-1.84,5.5-1.02,3.43-1.88,7.36-2.94,10.64-.56,1.73-1.54,3.99-2.2,5.87-.26.75-1.39,2.27-1.47,2.57-.63.3-.78.77-1.18-.1-.36-.76-.93-3.44-1.02-4.31s.07-1.73,0-2.57c-.02-.24.02-.49,0-.73s.02-.49,0-.73c-.15-1.82-.21-3.68-.37-5.5-.04-.48.04-.99,0-1.47.07-3.19-.3-6.35-.37-9.54-.04-1.83.02-3.67,0-5.5s.01-3.67,0-5.5c-.01-1.83,0-3.67,0-5.5,0-1.83.02-3.67,0-5.5.37-.12.33-.16.38-.53.39-3-.07-7.27-.01-10.47.04-1.83-.05-3.68,0-5.5.03-1.18.33-2.89.37-4.4.14-5.36.53-10.75.37-16.14-1.05-.2-.59.29-.83.8-.59,1.28-1,2.61-1.37,3.97-.26.95-.61,1.52-.73,2.57-2.2,4.09-2.94,8.85-4.41,13.21-.56,1.67-1.24,3.45-1.84,5.14-1.15,3.27-2.67,8.45-4.04,11.37-.22.46-1.61,1.78-1.84,2.57-.3-.12-.82.14-1.29-.35-.14-.15-.84-1.9-.91-2.22-.37-1.49-.48-3.84-.73-5.5-.04-.23.04-.5,0-.73-.1-.61-.36-.69-.37-.73-.65-4.16.47-6.84-3.31-9.9-.41-.33-.47-1.19-1.47-1.1-1.7,0-3.49-.11-5.14.37.54-.53,1.99-2.32,2.57-2.57,1.34-.56,4.45-.47,5.88,0,1.77.58,3.16,2.17,4.42,3.49.25.26.53,1.67,1.1.69.07-.13-.08-.38,0-.51,1.03-1.91,1.19-3.59,1.84-5.5.62-1.83,1.22-3.67,1.84-5.5,1.23-3.66,2.43-7.35,3.67-11.01.62-1.81,1.23-3.73,1.84-5.5,1.29-3.79,2.74-7.57,4.04-11.37.54-1.57.94-3.22,1.47-4.77,1.3-3.79,2.74-7.57,4.04-11.37.66-1.93,1.2-3.99,1.84-5.87.6-1.77,1.6-3.88,2.2-5.5.2-.53.24-1.18.37-1.47.09-.22.25-.42.37-.73.15-.42.61-.78.37-1.47.07-.12.27-.22.37-.37.22-.32.3-.72.37-1.1h.73Z"/>
  <path class="cls-1" d="M204.62,215.7c.12-.06.25-.33.37-.37-.12.12-.24.24-.37.37Z"/>
  <path class="cls-1" d="M204.25,216.07c.13-.08.23-.3.37-.37-.12.12-.23.27-.37.37Z"/>
  <path class="cls-1" d="M204.25,216.07c-.14.1-.04.56-.73.36v-.36c.22-.05.62.07.73,0Z"/>
  <path class="cls-2" d="M276.26,221.94c.49-.69,2.85-4.23,3.18-4.34,1.55-.53,5.06.28,6.88-.08.46.12.84,4.62.96,5.52.21,1.58.55,3.22.73,4.77s.16,3.4.37,5.14c.12.98.26,1.96.37,2.93.03.24-.02.49,0,.73.01.12-.01.25,0,.37.49,4.79,1.27,9.49,1.47,14.31h-6.61c-.1-.08-.32-.28-.37-.37.11-1.05-.28-7.34-.79-7.65l-13.18.13c-.24.11-.26.45-.36.55-.77.72-.74,1.35-1.1,1.83-.91,1.23-1.7,2.43-2.57,3.67-1.12,1.59-.74,1.7-2.57,1.83-1.82.13-3.69-.09-5.51,0-.04-.05-1.01.22-.73-.55,1.83-1.88,2.95-4.29,4.41-6.42.58-.86,1.24-1.68,1.84-2.57.88-1.31,2.09-2.46,2.57-4.04,2.27-1.99,5.42-7.5,7.35-10.27.5-.72,1.01-1.92,1.47-2.57.68-.97,1.49-1.94,2.2-2.93ZM279.93,227.07c-.36.5-.75.95-1.1,1.47-.99,1.45-1.74,3.11-2.57,4.4-.76,1.17-2.04,2.7-2.94,4.04-.13.19-.89.98-.73,1.1h9.55c-.12-2.45-.47-4.89-.74-7.33-.03-.24.02-.49,0-.73-.13-1.45-.61-2.87-.37-4.4-.71.15-.78,1.02-1.1,1.47Z"/>
  <path class="cls-1" d="M372.88,175.35c1.46-.05,2.94.03,4.41,0-.37.77-.2,1.92-.37,2.57-.46,1.77-.99,3.74-1.47,5.5-.43,1.58-1.01,3.48-1.47,5.14-1.05,3.78-2.33,7.52-3.31,11.37-.22.86-.99,1.82-.74,2.93.98.02,1.96-.02,2.94,0,1.83.04,3.68,0,5.51,0,1.83,0,3.68,0,5.51,0,1.83,0,3.68.02,5.51,0,1.83-.02,3.68.05,5.51,0,1.18-.03,2.55.13,3.67,0h4.41c-1.45-1.52-2.31-1.24-2.2-3.67.06-1.47.75-3.47,1.47-4.77,1.71-3.11,5.42-5.36,8.82-6.24.18-.05.32-.36.37-.37.63-.11,1.51.03,2.2,0,2.56-.12,5.16.09,7.71,0,.36.02.74-.03,1.1,0,1.07.07,2.28-.13,3.31,0l-1.47,6.24c-3.48.18-7.2-.25-10.65,0-4.46.32-7.21.98-7.71,5.87,0,.06-.31.23-.31.53,0,.71.48,1.58.32,2.4,1.83.02,3.68-.01,5.51,0s3.68,0,5.51,0c1.83,0,3.68,0,5.51,0,1.83,0,3.68.01,5.51,0,1.83-.01,3.68.02,5.51,0,1.22-.01,2.45.02,3.67,0,2.16-.04,4.95.26,6.98,0,1.51-.19,2.74-.93,3.51-2.2.19-.32.06-.89.17-1.1,1.01-2.09,1.16-2.94,1.84-5.14.57-1.84.95-3.66,1.47-5.5.05-.16.34-1.05.37-1.1,1.84.28,5.56-.56,6.98.37-1.02,1.73-.99,4.16-1.47,5.87-.03.1-.5.47-.64.99-.75,2.7-2.69,7.17-.83,9.28,1.61,1.83,3.74,1.37,5.51,0,1.86-1.44,1.94-2.74,2.57-4.77.58-1.84.67-3.49,1.1-5.14.43-1.64,1.6-3.31,1.84-5.5.04-.36-.02-.74,0-1.1,1.9.05,3.81-.07,5.71,0,.71.03,1.47-.38,1.27.73-.03.11.03.25,0,.37-.52,1.81-1.28,3.61-1.47,5.5-.02.24.02.49,0,.73-.69.24-.74.88-.93,1.46-.8,2.57-2.81,8.16,1.13,8.79,3.05.49,4.29-.89,5.67-3.28.64-1.1.71-1.4,1.1-2.57.6-1.8.95-3.68,1.47-5.5.45-1.58.87-3.69,1.47-5.14.1-.25-.03-.71.34-.93.53-.33,4.77-.25,5.74-.17,1.13.09.95-.18.9,1.1-.7.22-3.11,10.11-3.67,11.74-.52,1.49-1.05,3.03-1.84,4.4-.14.25-.27.59-.37.73-1.86,2.72-5.16,4.78-8.45,5.14-.66.07-1.52.03-2.2,0-.36-.01-.75.04-1.1,0-2.13-.25-5.87-2.63-6.4-2.58-.99.09-3.74,2.26-6.09,2.58-.35.05-.74-.03-1.1,0s-.74-.02-1.1,0c-.24.01-.49,0-.73,0-.12,0-.25,0-.37,0s-.25,0-.37,0c-.24,0-.49,0-.73,0-.12,0-.24,0-.37,0-1.16-.98-2.74-1.61-4.04-2.57-.2-.15-.34-.75-.59-.75-.71,0-3.24,1.6-4.4,1.45l-83.54.04c.78-3.03,1.4-6.15,2.2-9.17.51-1.91.96-4.03,1.47-5.87.47-1.7,1.32-3.67,1.84-5.5.21-.75.2-1.64.37-2.2.01-.04.52-.21.64-.63.49-1.68,2.32-7.12,2.32-8.37,0-1.94-1.83-.8-2.59-2,1.21-.12,2.3.42,3.5.39.7-.01,1.35-.39,1.64-.4Z"/>
  <path class="cls-1" d="M313.37,187.82c.37,0,.74,0,1.1,0,.12,0,.24,0,.37,0,.37,0,.74,0,1.1,0,.12,0,.25,0,.37,0,.48.02.99-.05,1.47,0,.36.03.74-.03,1.1,0-.02.35.05.76,0,1.1-.21,1.35-1.63,3.9-1.84,5.14-1.78-.26-3.46.24-5.14.37-.04,0-.03-.43-.73-.37-5.24.48-4.14,5.03-5.88,8.8,2.32.02,4.66-.01,6.98,0,1.83.01,3.68,0,5.51,0s3.68,0,5.51,0,3.68,0,5.51,0c2.81-.01,5.64.01,8.45,0-.49-.78-1.49-1.24-2.2-1.83.31-1.75.67-5.12,1.47-6.6.12-.22,3.05-3.48,3.31-3.67.55-.42,2.52-.69,2.94-1.83,1.07-.1,1.91-.66,2.57-.73.36-.04.75.05,1.1,0,1.05-.14,1.75-.31,2.94-.37.49-.02.98,0,1.47,0,1.65-.03,4.83-.27,6.25,0,.56.11,1.55.95,2.57,1.1,1.17,1.23,1.42,3.53,1.1,5.14-.27,1.32-1.38,4.05-1.84,5.87-.39,1.54-.7,3.35-1.1,4.77-.3,1.08-1.15,4.24-2.02,4.41h-58.6c.84-3.02,1.39-6.15,2.2-9.17.45-1.66.97-3.97,1.47-5.5.12-.36.24-.75.37-1.1.84-2.28,2.15-3.8,4.41-4.77.1-.04.26.04.37,0,.25-.09.51-.31.73-.37,2.18-.54,4.39-.33,6.61-.37ZM340.55,198.82c-.19.82-.8,3.45.05,3.98.35.22,3.84.04,4.72.05,1.69.03,3.9.18,5.51,0,.22-.02.47.1.69-.04.11-1.25,2.76-8.4.6-8.4h-7.71c-.16,0-2.49,1.35-2.76,1.64-.78.83-.86,1.74-1.09,2.76Z"/>
  <path class="cls-2" d="M308.96,225.24c3.11-.49,8.08.91,8.82,4.4.64.48,2.16-1.85,2.57-2.2.57-.5,1.93-1.7,2.57-1.83.93-.2,5.34-.24,6.25,0,.55.15,2.1,1.66,2.94,1.83,1.22,2.18,1.76,4.05,1.47,6.6-.17-.02-.29.01-.36.19-.21,1.04-.45,2.1-.74,3.11-.72,2.5-1.71,5.11-1.84,7.7-.56-.09-1.34,3.7-1.47,4.4-.08.44-.31.82-.37,1.47-1.6.58-3.77.45-5.51.37-.49-.02-.98.02-1.47,0,.17-.58.21-1.29.37-1.83.97-3.44,2.07-6.79,2.94-10.27.54-2.16,1.71-3.96,1.1-6.24-.08-.31.08-.73-.18-1.11-.28-.4-.72-.25-.92-.36-.13-.07-.26-.34-.37-.37s-.25,0-.37,0c-.98-1.49-5.87.19-6.43,1.1-.3.49-.2,1.26-.18,1.83,0,.12,0,.25,0,.37-.75,1.43-.71,3.32-1.1,4.77-.37,1.35-1.02,3.19-1.47,4.77-.52,1.83-.97,3.67-1.47,5.5-.06.21.07.55,0,.73-.2.56-.87,1.01-1.47,1.1-1.64.25-3.79-.18-5.51,0,.02-.45-.16-.92,0-1.83.59-3.29,2.09-7.52,2.94-11.01.29-1.18,1.14-2.35,1.1-3.67.62-4.06-1.64-4.51-5.14-4.04-.87.12-1.57.5-2.2,1.1-.51.49-.54.39-.85,1.17-1.31,3.32-2.09,8.15-2.83,11.67-.75-.12-1.28,4.18-1.47,4.77-.68,2.07-.62,1.72-2.57,1.83-1.5.09-3.38-.21-4.78,0,.51-2.72,1.45-5.4,2.2-8.07.45-1.57.71-3.19,1.1-4.77.47-1.89,1.27-3.22,1.47-5.5.01-.12,0-.25,0-.37,1.29-1.15,1.04-3.39,1.47-4.77.14-.45.75-1.12.78-1.79,1.08-.11,2.18-.05,3.26-.05s2.21,0,3.31,0l-.18,1.84c1.07.17,2.03-1.64,2.38-1.84.11-.06,2.08-.71,2.2-.73Z"/>
  <path class="cls-2" d="M497.06,225.6c.76.09,1.88.12,2.57.37.14.05,2.41,1.34,2.57,1.47,1.36,1.08,1.87,3.12,2.94,4.4,0,.37.01.73,0,1.1-.06,2.09-.17,3.8-.37,5.87l-17.47.34c-.59,6.95,3.96,8.73,10.13,7.73,1.05-.17,1.67-.62,2.2-.73.37-.08,1.55-.12,1.84.19,0,.18-1.72,2.98-1.84,3.11-.04.04-.45-.05-.6.12-1.63,1.79-1.15,1.76-3.81,2.08-.31.04-.64,0-.73.37-.12.01-.25,0-.37,0-1.29-.1-3.24-.19-4.41-.37-4.17-.63-8.64-4.06-9.18-8.44-.15-1.19-.12-3.55,0-4.77.14-1.51.82-3.78,1.47-5.14.25-.52,1.08-1.68,1.47-2.2.7-.92,2.78-3.1,3.67-3.67.09-.06,1.28-.65,1.47-.73,2.55-1.12,5.77-1.43,8.45-1.1ZM493.01,230.37c-2.04.57-1.85.94-2.94,2.2-.5.58-1.62,1.05-1.47,2.2h10.29c-.11-3.85-2.11-5.46-5.88-4.4Z"/>
  <path class="cls-1" d="M505.14,175.71c-.24,2.07-1.27,5.53-1.84,7.7-.48,1.82-1.3,3.97-1.84,5.87-.48,1.69-.69,3.7-1.1,5.14-.1.35-.5,1.02-.73,1.83-.6,2.06-1.38,4.1-1.89,6.19-1.2.11-2.42.05-3.63.05-.24,0-.49,0-.73,0-.73,0-1.47,0-2.2,0-.03-.05,0-.24,0-.37s-.02-.25,0-.37c.06-.4.27-1.45.37-1.83.34-1.29,1.31-2.95,1.47-4.4v-.37c.13-.22.29-.5.37-.73,1.2-3.46,1.99-7.44,2.94-11.01.52-1.94,1.1-3.45,1.47-5.5.02-.12-.02-.25,0-.37l.37-.37c.04-.23-.02-.49,0-.73-.81-.06-1.8-.16-2.57-.37,2.99-.84,6.45-.14,9.55-.37Z"/>
  <path class="cls-1" d="M494.12,203.96c.61,0,1.23,0,1.84,0v1.47c-.12.01-.97.58-1.84.73-1.25.22-2.78-.54-3.69.9-.4.63-.83,1.52.19,1.67s2.41-.03,3.5,0c.85.02,1.72-.02,2.57,0l-.73,2.2c-.61,0-1.22,0-1.84,0-1.83,0-3.68,0-5.51,0-.73,0-1.47,0-2.2,0,.42-1.37.47-2.62,2.2-2.2-1.38-3.57,2.64-4.75,5.51-4.77Z"/>
  <path class="cls-1" d="M356.35,180.12c.01.93.38,2.04.37,3.3,0,.18-.35.54-.37.73-1.87,1.2-3.3,1.51-5.51.73-.11-.46-.99-.98-1.1-1.47-.24-.99.19-3.52,1.1-4.04,1.64-.92,4.01-.15,5.51.73Z"/>
  <path class="cls-2" d="M339.82,217.53c1.79-.09,3.71-.03,5.51,0,.98.02,1.96-.02,2.94,0-.18.99-.51,1.95-.73,2.93v.73c-.03.11.03.25,0,.37-.02.08-.44.33-.55.71-.56,1.96-1.07,3.94-1.65,5.89,1.48-.37,2.09-1.9,3.6-2.45,1.7-.62,2.82-.37,4.48-.11.85.13,2.2.38,2.94.73.12.06,1.35.98,1.47,1.1,1.07,1.09,2.39,4.01,2.57,5.5.21,1.67-.1,3.16-.37,4.77-.34,2.07-.73,2.89-1.47,4.77-.04.11.04.26,0,.37s.04.26,0,.37c-.03.07-.26.24-.37.37-.12.12-.25.24-.37.37-.74.81-1.19,1.88-1.84,2.57-.94,1-2.41,1.86-3.31,2.93-1.27.17-1.68,1.05-1.84,1.1-1.99.63-4.54.97-6.61,1.1-.72.05-1.48.02-2.2,0-.49-.01-.99.04-1.47,0-.24-.02-.5.03-.73,0-.9-.1-4.84-.83-5.51-1.1-.11-.04-.8-1.03-1.1-1.1.05-1.87.62-3.72,1.1-5.5,1.02-3.76,1.93-7.65,2.94-11.37.36-1.33,1.05-2.87,1.47-4.4.52-1.9,2.59-7.57,2.56-9.02-.03-1.09-.89-.72-1.45-.89-.21-.06-.58.07-.73,0-.04-.02-.4-.7-.37-.73.36-.02.74.01,1.1,0ZM342.76,238.44c-.59,2.14-.99,3.71-1.47,5.87-.03.12-1.25,1.37-.7,2.17.59.87,3.88.2,4.74.03,2.6-.49,2.95-.65,4.78-2.57.58-.6.47-.72.73-1.1,1.51-2.14,2.35-3.42,2.57-6.24.1-1.35-.14-1.83-.37-2.93-.05-.23.06-.56,0-.73-.94-2.59-2.96-2.81-5.51-2.57-.82.08-2.66.44-3.11,1.11-.61.91-1.26,5.5-1.66,6.96Z"/>
  <path class="cls-2" d="M394.92,217.53c1.79-.09,3.71-.03,5.51,0,1.1.02,2.21-.02,3.3,0-.52,1.43-.72,2.95-1.1,4.4-.51,1.93-1.46,3.8-1.47,5.87-.98.14-2.55,9.19-2.94,10.64-.5,1.84-1.01,3.66-1.47,5.5-.44,1.78-1.6,3.91-1.84,5.87-.04.36.03.74,0,1.1-1.62.59-3.76.43-5.51.37-.61-.02-1.23.02-1.84,0,.17-.56.2-1.32.37-1.83,1.18-3.67,2.27-7.27,3.31-11.01.57-2.06.94-4.34,1.47-6.24.42-1.51,1.01-3.13,1.47-4.77.31-1.11.78-2.19,1.1-3.3.24-.85,1.84-5.51,1.47-5.87l-2.21-.37s-.44-.13-.37-.36c.24-.02.49,0,.74,0Z"/>
  <path class="cls-2" d="M372.88,225.97c1.78.11.8.36,1.1.73-1.17,4.2-2.9,8.52-3.31,12.84-.68,1.15-1.03,1.87-1.1,3.3-.15,3.04.95,4.16,4.04,4.04.72-.03,3.91-.83,4.32-1.19.46-.4.3-1.28.46-1.74,1.33-3.74,1.93-7.62,2.94-11.37.42-1.57,1.36-3.68,1.84-5.5.26-.97.71-1.03.73-1.1,1.46.03,2.95-.05,4.41,0,1.44.05,1.66-.49,1.84.73-.68.67-.52,1.77-.73,2.57-.43,1.55-1.3,3.07-1.1,4.77-.63-.1-1.26,3.7-1.47,4.4-.59,1.98-.97,3.92-1.47,5.87-.41,1.6-1.19,3.17-1.47,5.14-.04.27-.36.63-.37,1.1-1.42,1.62-4.96.33-6.98.73l.18-2.56c-1.16,1.05-2.21,2.67-3.86,2.93-.96.15-3.79.14-4.78,0-1.91-.26-4.39-2.15-5.05-3.95-1.26-3.44.24-6.07,1.01-9.26.38-1.58.7-3.19,1.1-4.77.53-2.09,1.03-3.71,1.47-5.87.08-.37.63-.97.73-1.83,1.82.08,3.69-.12,5.51,0Z"/>
  <path class="cls-2" d="M421.38,225.6c.36.03.76-.05,1.1,0,2.2.33,4.22,1.52,5.88,1.83.22.04.49-.02.73,0-1.12,3.63-1.95,7.34-2.94,11.01-.06.21.06.52,0,.73-.37,1.42-1.03,3.02-1.47,4.77-.56,2.23-.94,2.92-1.1,5.5-.04.61.03,1.23,0,1.84-.37.01-.74-.01-1.1,0-1.71.05-3.43-.04-5.14,0l-.91-2.56c-1.88,1.93-2.16,2.71-4.96,2.93-.69.05-1.51.03-2.2,0-.24,0-.49.02-.73,0-.63-.06-2.09-.15-2.57-.37-.44-.2-2.51-2.28-2.88-2.81-1.89-2.74-1.92-6.89-1.16-10.03.51-2.12,2.18-4.19,2.94-6.24.24-.18.48-.51.73-.73,1.46-1.26,2.73-2.67,4.41-3.67.41-.25,1.57-1,1.84-1.1,2.93-1.16,6.5-1.37,9.55-1.1ZM415.86,230.74c-1.8.5-2.09,1.1-3.31,2.2-.48.43-.66.57-1.1,1.1-1.24,1.48-1.52,1.81-2.2,3.67-.87,2.38-1.33,3.71-.73,6.24.49,2.09.83,2.41,2.94,2.93,1.52.38,4.69.38,5.79-.82.33-.36,1.56-5.09,1.84-6.07.15-.54-.01-1.19.09-1.55.39-1.39,1.07-2.8,1.47-4.4.3-1.22.83-2.38.74-3.67-1.92,0-3.65-.15-5.51.37Z"/>
  <path class="cls-2" d="M450.77,225.6c.18.04,2.78,2,2.94,2.2.47.59.99,2.16,1.1,2.93.02.12-.01.25,0,.37.05.54.05,1.3,0,1.83-.14,1.49-.73,3.99-1.1,5.5-.45,1.84-1.7,3.8-1.47,5.87-.51.16-1.68,4.67-1.84,5.5-.09.5-.33,1.15-.37,1.47-1.83-.03-3.68.05-5.51,0-.37,0-.74.01-1.1,0-.03-.64.19-1.23.37-1.83,1.03-3.59,1.96-6.67,2.94-10.27.54-1.98,1.54-4.25,1.1-6.24-.42-1.9-1.25-2.47-3.31-2.57-1.2-.06-3.86.53-4.9,1.09-.54.29-.14.86-.25,1.11-.31.7-.5,1.02-.73,1.83-.35,1.19-.44,2.63-.73,3.67-.46,1.58-1.01,3.16-1.47,4.77-.03.11.03.25,0,.37-.07.25-.3.49-.37.73-.52,1.81-.91,3.72-1.47,5.5-.06.2.07.54,0,.73-.07.21-.84,1.03-1.1,1.1-1.38.35-3.95-.25-5.51,0-.25-.34-1,.73-.37-1.83.88-3.58,1.95-7.45,2.94-11.01.44-1.56,1.01-3.18,1.47-4.77.3-1.04,1.92-7.44,2.25-7.66.57-.37,4.41.17,5.46-.05.27.09,1.01-.1,1.1,0,.21.23-.57,2-.36,2.57,1.34-.84,1.74-2.04,3.3-2.57s5.47-.75,6.98-.37Z"/>
  <path class="cls-2" d="M472.07,225.24c1.23,0,4.25.45,5.51.73.71.16,1.86.86,2.94,1.1l-1.47,5.5c-.12,0-.24,0-.37,0-.15-.27-.61-.26-.73-.37-2.3-1.85-3.94-2.14-6.98-1.83-4.59.46-6.51,4.03-7.35,8.07-.02.12.02.25,0,.37,0,.06-.34.31-.37,1.1,0,.24-.01.49,0,.73.05.77.34.97.37,1.1.28,1.21.04.99.73,2.2.66,1.14.94,1.58,2.2,2.2,1.82.9,3.52.82,5.51.73,2.31-.1,2.76-.44,4.78-1.1.18-.06.51.04.73,0,.08.11,1.62-.41,0,1.47-.36.41-1.8,1.86-2.2,2.2-.47.4-2.23,1.74-2.69,1.91-.54.2-.8.23-1.35.29-1.26.13-3.51.12-4.78,0-2.3-.22-3.57-1.24-5.51-1.83-.13-.04-.28-.3-.73-.37-3-3.05-4.44-6.38-3.94-10.72.14-1.24,1.15-4.74,1.73-5.79.5-.9,2.09-2.08,2.57-3.3,1.08-.11,1.69-1.27,2.57-1.83.46-.29,3.01-1.74,3.31-1.83.78-.25,4.65-.73,5.51-.73Z"/>
</svg>