<?xml version="1.0" encoding="UTF-8"?>
<svg id="Layer_1" data-name="Layer 1" xmlns="http://www.w3.org/2000/svg" viewBox="0 0 425.2 425.2">
  <defs>
    <style>
      .cls-1 {
        fill: #3a3f57;
      }
    </style>
  </defs>
  <path class="cls-1" d="M376.14,181.22c.69.36,1.18.84,1.71,1.39.11.11.22.22.33.33.34.35.69.7,1.03,1.05.34.35.68.7,1.02,1.04.21.22.42.43.63.65.53.54,1.08,1.06,1.66,1.55,1.18,1.02,2.26,2.13,3.35,3.23.41.41.81.82,1.22,1.22,1.01,1.01,2.02,2.02,3.02,3.04.85.86,1.71,1.72,2.56,2.57.4.4.8.8,1.19,1.2,1.08,1.08,2.15,2.15,3.32,3.14.68.59,1.31,1.22,1.95,1.85.14.14.28.28.43.43.3.29.6.59.89.89.3.3.61.6.91.9.44.44.89.87,1.33,1.31.14.13.27.27.42.4.13.13.25.25.38.38q.17.16.34.33c.34.47.41.81.47,1.38q-.19.36-.52.7c-.13.14-.27.28-.41.43q-.25.25-.5.51c-.2.21-.41.42-.61.62-.76.77-1.52,1.54-2.29,2.3-.29.29-.59.59-.88.88-.79.79-1.59,1.59-2.38,2.38-.5.5-.99.99-1.49,1.49-1.73,1.73-3.46,3.46-5.19,5.19-1.61,1.61-3.23,3.23-4.84,4.84-1.38,1.39-2.77,2.77-4.16,4.16-.83.83-1.66,1.66-2.48,2.48-.78.78-1.55,1.56-2.33,2.33-.29.29-.57.57-.86.86-.39.39-.78.78-1.17,1.17-.11.11-.23.23-.34.35-1.05,1.04-1.86,1.04-3.28,1.03q-.28,0-.57,0c-.63,0-1.26,0-1.89,0-.45,0-.9,0-1.35,0-1.23,0-2.45,0-3.68,0-.76,0-1.53,0-2.29,0-2.39,0-4.78,0-7.17,0-.28,0-.55,0-.83,0q-.2,0-.41,0c-2.21,0-4.43,0-6.64,0-2.27,0-4.54,0-6.82,0-1.28,0-2.55,0-3.83,0-1.2,0-2.4,0-3.6,0-.44,0-.88,0-1.32,0-.6,0-1.2,0-1.8,0q-.26,0-.53,0-1.18,0-1.63-.35-.26-.34-.24-.93c.22-.73.48-1.05,1.01-1.59.67-.71,1.31-1.42,1.92-2.17.67-.83,1.35-1.65,2.05-2.47q.14-.17.29-.34c.38-.45.77-.91,1.16-1.36.97-1.14,1.93-2.27,2.87-3.43.81-.99,1.64-1.97,2.48-2.94.62-.72,1.23-1.45,1.83-2.19.8-.99,1.63-1.96,2.47-2.93.62-.72,1.23-1.45,1.83-2.19.9-1.1,1.82-2.18,2.75-3.26,1.28-1.49,2.55-2.98,3.78-4.5.81-.99,1.64-1.97,2.48-2.94.62-.72,1.23-1.45,1.83-2.19.8-.99,1.63-1.96,2.47-2.93.62-.72,1.23-1.45,1.83-2.19.8-.99,1.63-1.96,2.47-2.93.62-.72,1.23-1.45,1.83-2.19.9-1.1,1.82-2.18,2.75-3.26,1.28-1.49,2.55-2.98,3.78-4.5.81-.99,1.64-1.97,2.48-2.93.82-.95,1.6-1.92,2.38-2.91.48-.52.77-.67,1.47-.49Z"/>
  <path class="cls-1" d="M231.05,177.82h5.11v18h77.11v-10.64h5.11v14.73h-108.2v-4.09h8.59c-.72-2.86-1.21-4.41-3.68-5.99-1.03-.55-2.14-.86-3.27-1.17.13-.52.25-1.05.38-1.57q.05-.22.11-.45c.19-.79.41-1.53.74-2.28,2.56.24,4.75,1.28,6.75,2.86.22.16.43.31.65.47,2.39,2.28,2.98,4.92,3.44,8.12h7.16v-18Z"/>
  <path class="cls-1" d="M65.76,184.72c.27,0,.54,0,.81-.01,2.33,0,4.23.26,5.96,1.9,2.04,2.52,1.43,6.24,1.43,9.2h34.36v-10.64h5.11v14.73h-44.39c-.07-2.56-.13-5.13-.2-7.77q-.06-1.64-.82-2.86c-1.1-.37-2.12-.41-3.27-.41v11.05c-1.52.01-3.04.03-4.6.04q-.71,0-1.43.02c-3.88.03-7.95-.14-10.9-3-1.85-2.18-2.3-4.91-2.09-7.69.16-1.17.38-2.32.61-3.48q3.67-.86,5.52-.82-.09.38-.18.77c-.08.36-.15.72-.23,1.07-.04.19-.08.37-.13.57-.39,1.97-.58,4.26.49,6.06,1.08,1.42,2.47,1.84,4.14,2.17,1.21.07,2.43.13,3.68.2v-10.43c2.08-.59,3.96-.66,6.11-.66Z"/>
  <path class="cls-1" d="M148.56,184.7c.21,0,.43,0,.65,0,2.1.04,4,.31,5.96,1.09v10.02h46.84v-10.64h5.11v14.73c-7.69.01-15.39.02-23.08.03-.91,0-1.82,0-2.73,0-.18,0-.36,0-.55,0-2.93,0-5.85,0-8.78.01-3.01,0-6.01,0-9.02.01-1.85,0-3.71,0-5.56,0-1.27,0-2.54,0-3.82,0-.73,0-1.47,0-2.2,0-.8,0-1.59,0-2.39,0q-.34,0-.69,0c-2.54-.01-5.15-.43-7.01-2.3-1.2-1.48-1.58-3.14-1.55-5.02,0-.17,0-.34,0-.51.06-2.2.75-3.99,2.33-5.55,1.96-1.51,4.05-1.95,6.48-1.92ZM146.17,189.27c-.78.65-1.18,1.23-1.3,2.25q-.03,1.9.89,3.48c1.33,1.09,2.53.82,4.3.82v-6.75q-2.19-.52-3.89.2Z"/>
  <path class="cls-1" d="M139.83,212.39h5.11c1.04,2.21,2.04,4.44,3,6.69.14.33.28.66.43.99.43.99.85,1.97,1.27,2.96.07.15.13.3.2.46.75,1.76,1.51,3.51,2.26,5.27.42-.63.72-1.28,1.03-1.98.06-.14.12-.27.18-.41.2-.45.4-.9.59-1.35.14-.31.28-.63.41-.94.68-1.54,1.35-3.07,2.01-4.62.06-.14.12-.27.18-.41.28-.64.55-1.28.83-1.93.68-1.59,1.4-3.16,2.13-4.72h4.91v22.7h-4.5c-.07-4.32-.13-8.64-.2-13.09q-1.5,3.47-3,6.93c-.19.44-.38.88-.57,1.32-.1.22-.19.45-.29.67-.61,1.4-1.23,2.78-1.86,4.17h-3.48c-1.04-1.98-1.88-4.03-2.75-6.09-.23-.54-.46-1.08-.69-1.62-.14-.33-.28-.67-.42-1-.62-1.46-1.24-2.92-1.87-4.38-.07,4.32-.13,8.64-.2,13.09h-4.7v-22.7Z"/>
  <path class="cls-1" d="M45.94,212.39q13,0,16.31,3.18c2.53,2.78,3.06,6.04,2.94,9.65-.16,2.81-1.53,5.51-3.59,7.4-4.55,3.71-9.84,2.48-15.67,2.48v-22.7ZM50.44,216.68v14.11q4.54.29,8.28-1.69c1.48-1.69,1.84-3.67,1.8-5.86-.16-2.04-.74-3.79-2.21-5.25-2.23-1.8-5.17-1.32-7.86-1.32Z"/>
  <path class="cls-1" d="M250.81,219.25c1.82,1.33,3.08,3.2,3.56,5.41.25,3.17.01,5.85-2.05,8.39-1.34,1.48-3.29,2.35-5.27,2.5-2.26.04-3.86-.39-5.57-1.88q-.1-.1-.2-.2c-.07,2.56-.13,5.13-.2,7.77h-4.5v-22.7h4.5c.07.54.13,1.08.2,1.64.09-.08.17-.16.26-.25,2.58-2.33,6.3-2.42,9.27-.66ZM241.73,224.09c-.79,1.17-.78,2.47-.65,3.84.43,1.42,1.23,2.49,2.49,3.26,1.69.47,3.09.38,4.63-.49,1.12-.8,1.61-1.84,1.87-3.18.14-1.49-.25-2.71-1.06-3.95-1.06-1.01-1.96-1.41-3.44-1.47-1.7.07-2.8.64-3.85,1.99Z"/>
  <path class="cls-1" d="M86.03,212.39h4.5q.1,3.75.2,7.57c.61-.4,1.21-.81,1.84-1.23,1.94-.86,4.05-.92,6.05-.21,2.21.94,3.74,2.32,4.67,4.57.87,2.35.83,5.15-.01,7.5-.99,2.16-2.43,3.59-4.63,4.46-2.04.65-4.1.7-6.09-.17-.64-.37-1.25-.78-1.84-1.23-.07.47-.13.94-.2,1.43h-4.5v-22.7ZM91.37,223.69c-.89,1.38-1.19,2.53-.9,4.16.37,1.42,1.16,2.3,2.31,3.14,1.19.56,2.47.64,3.74.28,1.31-.59,2.23-1.63,2.81-2.93.31-1.52.18-2.77-.56-4.14-.88-1.07-1.82-1.86-3.23-2.07-1.65-.04-3.06.25-4.17,1.56Z"/>
  <path class="cls-1" d="M268.11,219.5c.19.15.38.3.58.46.07-.47.13-.94.2-1.43h4.5v16.57h-4.5q-.1-.71-.2-1.43c-.11.08-.22.16-.33.25-2,1.42-3.94,1.89-6.37,1.51-2.24-.51-3.96-1.67-5.23-3.59-1.39-2.51-1.58-5.41-.85-8.16.82-2.31,2.23-3.84,4.39-4.93,2.57-1.18,5.53-.85,7.82.76ZM260.76,224.09c-.88,1.27-.79,2.54-.66,4.05.33,1.27,1.16,2.16,2.25,2.86,1.19.57,2.47.64,3.74.28,1.31-.59,2.23-1.63,2.81-2.93.32-1.58.15-2.91-.61-4.35-.67-.98-1.54-1.45-2.66-1.79-2.09-.33-3.55.27-4.86,1.89Z"/>
  <path class="cls-1" d="M117.01,219.14c.41.32.79.63,1.14,1.02.07-.54.13-1.08.2-1.64h4.5v16.57h-4.5l-.2-1.64c-.09.08-.17.16-.26.25-1.64,1.48-3.25,1.87-5.44,1.84-2.1-.14-4.06-1.11-5.51-2.64-1.97-2.42-2.11-5.26-1.88-8.25.42-2.13,1.69-4.08,3.48-5.32,2.62-1.6,5.8-1.76,8.48-.2ZM110.63,223.39c-1.01,1.25-1.42,2.51-1.28,4.13.31,1.31.71,2.38,1.86,3.15,1.28.73,2.41.97,3.87.73,1.28-.38,2.13-1.16,2.86-2.25.65-1.29.62-2.97.2-4.35-.48-1.11-1.46-1.91-2.54-2.44-1.76-.56-3.67-.33-4.98,1.02Z"/>
  <path class="cls-1" d="M351.97,177.77c.18,0,.36,0,.54,0q.29,0,.59,0c.21,0,.41,0,.62,0,.68,0,1.37,0,2.05,0,.47,0,.95,0,1.42,0,.99,0,1.99,0,2.98,0,1.28,0,2.55,0,3.83-.01.98,0,1.96,0,2.94,0,.47,0,.94,0,1.41,0,.66,0,1.32,0,1.97,0,.19,0,.39,0,.59,0,.87,0,1.34.02,2.09.5q.2.21.41.43c.12.12.25.24.38.36.1.12.21.23.31.35q.16.17.32.35.21.36.15.76c-.24.71-.78,1.22-1.27,1.77-.23.26-.45.52-.68.77-.11.13-.22.25-.34.39-.42.49-.83.99-1.23,1.49-.8.99-1.63,1.96-2.46,2.92-.79.92-1.57,1.86-2.33,2.81-.6.73-1.22,1.44-1.85,2.15-.94-.79-1.85-1.61-2.72-2.48-.12-.12-.24-.24-.36-.36-.39-.39-.78-.77-1.17-1.16-.13-.13-.27-.27-.41-.4-.71-.7-1.41-1.4-2.12-2.11-.58-.58-1.17-1.16-1.76-1.74-.71-.7-1.42-1.4-2.13-2.11-.27-.27-.54-.53-.81-.8-.38-.37-.75-.75-1.13-1.12-.11-.11-.23-.22-.34-.33-.47-.48-.75-.79-.86-1.45.17-.85.57-.92,1.35-.92Z"/>
  <path class="cls-1" d="M199.57,219.19c1.57,1.19,2.07,2.93,2.36,4.81.13,1.06.13,2.12.12,3.19,0,.23,0,.46,0,.69,0,.72,0,1.44-.01,2.16,0,.49,0,.98,0,1.47,0,1.2-.01,2.39-.02,3.59h-4.5c0-.69-.02-1.38-.02-2.09,0-.67-.02-1.34-.03-2.01,0-.47-.01-.93-.02-1.4,0-.67-.02-1.34-.03-2.01,0-.21,0-.41,0-.63-.03-1.52-.21-2.72-1.23-3.92-.96-.79-1.98-.72-3.17-.63-.84.27-1.25.57-1.7,1.3-.44.94-.57,1.74-.59,2.76,0,.19,0,.38-.01.58q0,.31-.01.62c0,.21,0,.42-.01.64-.01.68-.03,1.35-.04,2.03,0,.46-.02.92-.03,1.38-.02,1.12-.04,2.24-.06,3.37h-4.5v-16.57h4.5c.07.54.13,1.08.2,1.64q.2-.23.41-.46c2.23-2.23,5.85-2.06,8.4-.51Z"/>
  <path class="cls-1" d="M67.42,218.52h4.5c0,.69.01,1.37.02,2.08,0,.67.02,1.34.03,2.01,0,.46.01.92.01,1.39,0,.67.01,1.33.02,2,0,.2,0,.41,0,.62.03,1.41.2,3.05,1.27,4.09.94.66,2.05.65,3.15.5.84-.27,1.25-.57,1.7-1.3.44-.94.57-1.74.59-2.76q0-.29.01-.58t.01-.62c0-.21,0-.42.01-.64.01-.68.03-1.35.04-2.03,0-.46.02-.92.03-1.38.02-1.12.04-2.24.06-3.37h4.5v16.57h-4.5q-.1-.81-.2-1.64c-.09.1-.19.19-.29.29-1.36,1.3-2.65,1.76-4.52,1.83-1.87-.06-3.46-.59-4.81-1.92-1.7-2.13-1.67-4.72-1.66-7.33,0-.22,0-.45,0-.68,0-.71,0-1.42,0-2.13,0-.48,0-.97,0-1.45,0-1.18,0-2.36,0-3.55Z"/>
  <path class="cls-1" d="M167.64,218.52h4.5c0,.74.02,1.48.02,2.24,0,.72.02,1.43.03,2.15,0,.5.01,1,.02,1.49,0,.72.02,1.43.03,2.15,0,.22,0,.44,0,.67.02,1.13.06,1.99.71,2.96,1.01.92,1.62,1.09,2.96,1.07.72-.06,1.16-.24,1.75-.66.73-.95,1.04-1.67,1.06-2.85,0-.2,0-.41.01-.62q0-.33.01-.67c0-.23,0-.45.01-.69.01-.72.03-1.45.04-2.17,0-.49.02-.98.03-1.47.02-1.2.04-2.4.06-3.61h4.5v16.57h-4.5q-.1-.71-.2-1.43c-.1.08-.19.16-.29.25-1.76,1.41-3.39,1.8-5.64,1.59-1.75-.24-2.96-1.11-4.09-2.45-.37-.66-.62-1.32-.82-2.05-.04-.12-.07-.24-.11-.37-.12-.55-.12-1.06-.12-1.62,0-.23,0-.47,0-.71,0-.25,0-.5,0-.76,0-.26,0-.52,0-.78,0-.68,0-1.37,0-2.05,0-.7,0-1.4,0-2.09,0-1.37,0-2.74,0-4.1Z"/>
  <path class="cls-1" d="M300.8,218.52h4.7c1.47,3.53,2.92,7.07,4.3,10.64.33-.49.53-.87.74-1.41.06-.16.13-.32.19-.48.07-.17.13-.34.2-.52q.11-.26.21-.53c.22-.56.45-1.13.67-1.69.22-.56.44-1.12.67-1.68.14-.35.28-.7.41-1.05.06-.16.13-.32.19-.49q.08-.21.17-.42c.33-.8.69-1.58,1.04-2.37h4.7c-1.11,2.81-2.26,5.59-3.44,8.37-.25.6-.51,1.19-.76,1.79-.17.41-.35.82-.52,1.23-.64,1.51-1.28,3.02-1.91,4.53-.27.64-.54,1.27-.8,1.91-.17.41-.35.82-.52,1.23-.24.57-.48,1.14-.72,1.71-.07.17-.14.34-.22.52q-.49,1.17-.72,1.4c-.32.02-.64.02-.96.02-.19,0-.39,0-.59,0-.2,0-.41,0-.62,0-.2,0-.41,0-.62,0-.51,0-1.01,0-1.52,0,.13-.77.35-1.4.67-2.11.09-.2.18-.41.28-.62.19-.42.39-.85.58-1.27.09-.2.18-.41.28-.62.08-.18.17-.37.26-.56.44-1.31.06-2.24-.47-3.43-.07-.16-.14-.32-.21-.49-.23-.52-.46-1.05-.69-1.57-.24-.55-.47-1.1-.71-1.65-.16-.38-.32-.75-.49-1.13-.77-1.79-1.53-3.59-2.28-5.39-.2-.48-.4-.97-.61-1.45-.12-.29-.24-.59-.37-.88-.06-.13-.11-.27-.17-.41q-.38-.91-.38-1.14Z"/>
  <path class="cls-1" d="M225.73,219.96c.77.73,1.44,1.38,1.64,2.45q-2.12,1.53-3.27,2.05-.13-.14-.26-.29c-1.07-1.14-2.01-1.77-3.61-1.84-.91.02-1.55.25-2.33.71q-.35.2-.96.4c-.8,1.33-1.29,2.96-.93,4.49.44,1.36,1.19,2.33,2.41,3.06,1.27.36,2.45.45,3.67-.12.83-.47,1.52-1.07,2.21-1.71.47.29.95.59,1.42.88.13.08.27.17.41.25q1.01.64,1.24,1.32c-.77,1.6-2.33,2.67-3.91,3.34-2.52.86-5,.78-7.44-.29-2.32-1.22-3.68-2.92-4.48-5.42-.2-.8-.22-1.58-.21-2.41,0-.17,0-.34,0-.51.04-1.36.26-2.49.9-3.7q.13-.24.26-.49c1.16-1.94,3.11-3.27,5.29-3.85,2.91-.56,5.57-.09,7.95,1.69Z"/>
  <path class="cls-1" d="M292.01,214.23h4.5v4.3h3.48v3.48h-3.48c.02,1.12.03,2.23.05,3.35,0,.38.01.76.02,1.14,0,.55.02,1.09.03,1.64,0,.17,0,.34,0,.51.02.94.08,1.61.71,2.35.93.19,1.71.2,2.66.2v3.48c-1.1.55-1.68.71-2.84.69-.14,0-.29,0-.44,0-1.26-.04-2.25-.13-3.21-1.01-1.51-1.65-1.52-3.5-1.51-5.63,0-.19,0-.39,0-.59,0-.61,0-1.23,0-1.84,0-.42,0-.83,0-1.25,0-1.02,0-2.04,0-3.06h-2.25v-3.48h2.25v-4.3Z"/>
  <path class="cls-1" d="M119.37,184.37c3.17.19,6.29,1.96,8.39,4.3,2.54,3.5,2.45,6.83,2.45,11.25h-13.7v-4.09c2.83-.07,5.67-.13,8.59-.2-.66-2.65-1.27-4.18-3.48-5.73-1.05-.53-2.12-.97-3.27-1.23.12-1.5.55-2.87,1.02-4.3Z"/>
  <path class="cls-1" d="M276.05,212.39h4.5v22.7h-4.5v-22.7Z"/>
  <path class="cls-1" d="M283.62,218.52h4.5v16.57h-4.5v-16.57Z"/>
  <path class="cls-1" d="M229.21,218.52h4.5v16.57h-4.5v-16.57Z"/>
  <path class="cls-1" d="M204.87,218.52h4.5v16.57h-4.5v-16.57Z"/>
  <path class="cls-1" d="M125.71,218.52h4.5v16.57h-4.5v-16.57Z"/>
  <path class="cls-1" d="M232.89,211.57c.67.57.88,1.09,1.02,1.93.05.71,0,.95-.32,1.62-.56.6-.95.89-1.73,1.15-.88,0-1.44-.15-2.12-.69-.63-.63-.72-.95-.81-1.83.08-.92.27-1.3.88-1.98,1.1-.67,1.92-.75,3.07-.2Z"/>
  <path class="cls-1" d="M287.1,211.57c.7.54.98.86,1.23,1.71,0,1.04-.26,1.79-.97,2.56-.8.4-1.55.51-2.43.32-.66-.4-1.15-.83-1.51-1.52-.18-.79-.18-1.49.19-2.22.97-1.29,2.06-1.45,3.49-.85Z"/>
  <path class="cls-1" d="M208.95,211.97c.63.93.6,1.79.42,2.88-.36.66-.65.92-1.28,1.3-.78.18-1.44.17-2.2-.08-.64-.53-1.16-.98-1.28-1.83-.04-.84-.04-1.46.49-2.14,1.31-1.17,2.41-1.08,3.85-.13Z"/>
  <path class="cls-1" d="M129.39,211.57c.76.67,1.09,1.12,1.16,2.13-.06.9-.36,1.45-.99,2.09-.64.46-1.23.56-2.01.47-.87-.31-1.36-.65-1.84-1.43-.19-1.07-.19-1.97.43-2.88,1.17-.79,1.92-.97,3.25-.4Z"/>
  <path class="cls-1" d="M111.96,201.99c.54.43.8.76,1.07,1.39.11,1.02.02,1.64-.61,2.45-.67.45-1.04.55-1.84.61-.91-.2-1.51-.46-2.05-1.23-.29-.97-.31-1.63.14-2.54.93-1.03,1.96-1.26,3.29-.69Z"/>
  <path class="cls-1" d="M316.35,201.75c.74.34,1.26.7,1.64,1.43.1,1.1.09,1.77-.61,2.66-.67.45-1.04.55-1.84.61-.91-.2-1.5-.46-2.05-1.23-.23-.94-.28-1.4.03-2.31.76-1.1,1.53-1.3,2.84-1.16Z"/>
  <path class="cls-1" d="M146.64,179.15c.61.57.8.91.95,1.72.02.75-.22,1.23-.6,1.86-.68.6-1.34.74-2.25.7-.78-.16-1.13-.51-1.64-1.11-.22-.63-.28-1.18-.2-1.84.33-.66.6-1.06,1.19-1.51.95-.27,1.65-.23,2.56.18Z"/>
  <path class="cls-1" d="M60.26,201.96c.6.37.91.6,1.23,1.23.11.91.12,1.62-.32,2.44-.64.54-1.1.7-1.93.83-.92-.12-1.3-.27-1.93-.96-.38-.8-.44-1.24-.32-2.11.84-1.51,1.63-1.63,3.27-1.43Z"/>
  <path class="cls-1" d="M151.69,179.05c.6.5.95.86,1.11,1.64.04.91-.12,1.55-.7,2.25-.61.47-1.28.51-2.04.49-.75-.14-1.12-.57-1.64-1.1-.31-.63-.25-1.15-.2-1.84.27-.62.54-.96,1.05-1.41.85-.33,1.56-.31,2.43-.03Z"/>
  <path class="cls-1" d="M202.83,201.96c.58.45.9.78,1.23,1.43.08.83.04,1.34-.31,2.11-.57.61-.91.8-1.72.95-.91.02-1.58-.37-2.26-.94-.34-.77-.35-1.5-.22-2.33.83-1.33,1.79-1.44,3.27-1.23Z"/>
  <path class="cls-1" d="M54.94,201.96c.6.37.91.6,1.23,1.23.11.91.12,1.62-.32,2.44-.64.54-1.11.7-1.93.83-.93-.18-1.44-.51-2.05-1.23-.36-.72-.19-1.49,0-2.25.76-1.2,1.75-1.26,3.07-1.02Z"/>
  <path class="cls-1" d="M207.94,201.96c.6.27.78.49,1.23,1.02.31.86.27,1.47-.05,2.33-.43.65-.79.89-1.53,1.11-1,.06-1.73-.27-2.49-.91-.34-.77-.35-1.5-.22-2.33.79-1.27,1.64-1.43,3.07-1.23Z"/>
</svg>