<?xml version="1.0" encoding="UTF-8"?>
<svg id="Layer_1" data-name="Layer 1" xmlns="http://www.w3.org/2000/svg" viewBox="0 0 708.66 425.2">
  <defs>
    <style>
      .cls-1 {
        fill: #fff;
      }
    </style>
  </defs>
  <path class="cls-1" d="M151.67,177.33v87.71h-19.86v-104.88c4.91,7.39,11.78,13.36,19.86,17.17M162.51,180.95v56.09h19.86v-56.09c-3.21.66-6.53,1.01-9.93,1.01s-6.73-.35-9.93-1.01M193.2,177.33v87.71h19.86v-104.88c-4.91,7.39-11.78,13.36-19.86,17.17M562.5,178.24l1.05,6.11-4.44,4.32,6.13.89,2.74,5.56,2.74-5.56,6.13-.89-4.44-4.32,1.05-6.11-5.48,2.88-5.48-2.88ZM368.51,224.86c0,.87,0,1.94-.1,2.72h-40c1.26,7.48,7.48,13.3,15.34,13.3,6.02,0,11.26-2.91,13.79-7.96h10.29c-4.66,11.36-14.17,16.99-24.08,16.99-13.79,0-24.85-11.36-24.85-25.05s11.07-25.14,24.85-25.14,24.76,11.36,24.76,25.14M358.9,220.29c-.29-.78-.78-1.55-1.07-2.33-2.52-5.34-7.77-9.32-14.08-9.32s-11.94,4.17-14.37,9.81c-.29.68-.58,1.26-.68,1.84h30.19ZM413.31,181.36h9.81v67.67h-9.81v-5.73c-.87.87-1.84,1.65-2.82,2.33-3.98,2.72-8.74,4.27-13.88,4.27-13.3,0-24.17-10.87-24.17-24.37s10.87-24.17,24.17-24.17c5.24,0,10.19,1.65,14.08,4.37.87.68,1.75,1.55,2.62,2.23v-26.6ZM413.31,225.54c0-8.54-8.06-15.44-16.7-15.44s-15.14,6.89-15.14,15.44,6.5,15.63,15.14,15.63,16.7-6.89,16.7-15.63M479.81,207.38c0,10.49-5.63,19.61-13.79,23.49,0,0-3.79,2.14-11.55,2.14h-10.58v16.89h-10.19v-67.96h24.08c12.23.58,22.04,11.75,22.04,25.44M470.49,207.38c0-8.35-5.63-15.34-12.72-16.31h-13.88v32.81h12.91c7.48-.39,13.69-7.48,13.69-16.5M497.97,201.36h-10.19v48.54h10.19v-29.32c1.75-11.55,15.53-10.58,15.44-10.58v-8.84c-10,0-11.46,1.46-15.44,4.66v-4.47ZM568.26,224.57c0,13.98-11.46,25.34-25.44,25.34s-25.05-11.36-25.05-25.34,11.07-25.24,25.05-25.24,25.44,11.26,25.44,25.24M558.94,224.57c0-9.32-6.7-16.5-16.12-16.5s-16.21,7.18-16.21,16.5,6.99,16.6,16.21,16.6,16.12-7.18,16.12-16.6M314.32,181.3l-34.72,34.72-34.72-34.72h-.24v37l.04-.04v31.64h11.41v-43.06l23.51,23.51,23.51-23.51v43.06h11.41v-31.64l.04.04v-37h-.24Z"/>
</svg>