<svg version="1.2" xmlns="http://www.w3.org/2000/svg" viewBox="0 0 482 167" width="482" height="167">
	<style>
		.s0 { fill: #ffffff } 
	</style>
	<path class="s0" d="m40.67 50.33v87.71h-19.86v-104.88c4.91 7.39 11.78 13.36 19.86 17.17zm10.84 3.62v56.09h19.86v-56.09q-4.82 1-9.93 1.01c-3.4 0-6.73-0.35-9.93-1.01zm30.69-3.62v87.71h19.86v-104.88c-4.91 7.39-11.78 13.36-19.86 17.17zm369.3 0.91l1.05 6.11-4.44 4.32 6.13 0.89 2.74 5.56 2.74-5.56 6.13-0.89-4.44-4.32 1.05-6.11-5.48 2.88zm-193.99 46.62c0 0.87 0 1.94-0.1 2.72h-40c1.26 7.48 7.48 13.3 15.34 13.3 6.02 0 11.26-2.91 13.79-7.96h10.29c-4.66 11.36-14.17 16.99-24.08 16.99-13.79 0-24.85-11.36-24.85-25.05 0-13.69 11.07-25.14 24.85-25.14 13.78 0 24.76 11.36 24.76 25.14zm-9.61-4.57c-0.29-0.78-0.78-1.55-1.07-2.33-2.52-5.34-7.77-9.32-14.08-9.32-6.31 0-11.94 4.17-14.37 9.81-0.29 0.68-0.58 1.26-0.68 1.84 0 0 30.19 0 30.2 0zm54.41-38.93h9.81v67.67h-9.81v-5.73c-0.87 0.87-1.84 1.65-2.82 2.33-3.98 2.72-8.74 4.27-13.88 4.27-13.3 0-24.17-10.87-24.17-24.37 0-13.5 10.87-24.17 24.17-24.17 5.24 0 10.19 1.65 14.08 4.37 0.87 0.68 1.75 1.55 2.62 2.23zm0 44.18c0-8.54-8.06-15.44-16.7-15.44-8.64 0-15.14 6.89-15.14 15.44 0 8.55 6.5 15.63 15.14 15.63 8.64 0 16.7-6.89 16.7-15.63zm66.5-18.16c0 10.49-5.63 19.61-13.79 23.49 0 0-3.79 2.14-11.55 2.14h-10.58v16.89h-10.19v-67.96h24.08c12.23 0.58 22.04 11.75 22.03 25.44zm-9.32 0c0-8.35-5.63-15.34-12.72-16.31h-13.88v32.81h12.91c7.48-0.39 13.69-7.48 13.69-16.5zm27.48-6.02h-10.19v48.54h10.19v-29.32c1.75-11.55 15.53-10.58 15.44-10.58v-8.84c-10 0-11.46 1.46-15.44 4.66v-4.47zm70.29 23.21c0 13.98-11.46 25.34-25.44 25.34-13.98 0-25.05-11.36-25.05-25.34 0-13.98 11.07-25.24 25.05-25.24 13.98 0 25.44 11.26 25.44 25.24zm-9.32 0c0-9.32-6.7-16.5-16.12-16.5-9.42 0-16.21 7.18-16.21 16.5 0 9.32 6.99 16.6 16.21 16.6 9.22 0 16.12-7.18 16.12-16.6zm-244.62-43.27l-34.72 34.72-34.72-34.72h-0.24v37l0.04-0.04v31.64h11.41v-43.06l23.51 23.51 23.51-23.51v43.06h11.41v-31.64l0.04 0.04v-37z"/>
</svg>